<svg xmlns="http://www.w3.org/2000/svg" version="1.1" xmlnsxlink="http://www.w3.org/1999/xlink" xmlnssvgjs="http://svgjs.dev/svgjs" width="1000" height="237" viewBox="0 0 1000 237"><g transform="matrix(1,0,0,1,-0.6060483825351071,-0.167698369538698)"><svg viewBox="0 0 396 94" data-background-color="#0a1627" preserveAspectRatio="xMidYMid meet" height="237" width="1000" xmlns="http://www.w3.org/2000/svg" xmlnsxlink="http://www.w3.org/1999/xlink"><g id="tight-bounds" transform="matrix(1,0,0,1,0.23999539084275057,0.06651327736977919)"><svg viewBox="0 0 395.52 93.86697344526046" height="93.86697344526046" width="395.52"><g><svg viewBox="0 0 660.1149288565122 156.66209167120303" height="93.86697344526046" width="395.52"><g><rect width="14.057660798196713" height="156.66209167120303" x="213.73710890073247" y="0" fill="#fe0039" opacity="1" stroke-width="0" stroke="transparent" fill-opacity="1" class="rect-o-0" data-fill-palette-color="primary" rx="1%" id="o-0" data-palette-color="#fe0039"></rect></g><g transform="matrix(1,0,0,1,264.5949288565122,0.3897066956995019)"><svg viewBox="0 0 395.52 155.88267827980403" height="155.88267827980403" width="395.52"><g id="textblocktransform"><svg viewBox="0 0 395.52 155.88267827980403" height="155.88267827980403" width="395.52" id="textblock"><g><svg viewBox="0 0 395.52 155.88267827980403" height="155.88267827980403" width="395.52"><g transform="matrix(1,0,0,1,0,0)"><svg width="395.52" viewBox="2.5 -35.70000076293945 91.83999633789062 36.20000076293945" height="155.88267827980403" data-palette-color="#fe0039"><path d="M19.9-19.45L33.8-19.45 33.8-2.2Q31.25-0.95 27.8-0.25 24.35 0.45 20.7 0.45L20.7 0.45Q15.1 0.45 11-1.73 6.9-3.9 4.7-7.98 2.5-12.05 2.5-17.65L2.5-17.65Q2.5-23.15 4.67-27.23 6.85-31.3 10.9-33.5 14.95-35.7 20.35-35.7L20.35-35.7Q24.15-35.7 27.43-34.65 30.7-33.6 32.85-31.75L32.85-31.75 30.4-26.2Q27.95-27.95 25.63-28.73 23.3-29.5 20.6-29.5L20.6-29.5Q10.4-29.5 10.4-17.65L10.4-17.65Q10.4-11.55 13.05-8.55 15.7-5.55 21.05-5.55L21.05-5.55Q23.95-5.55 26.8-6.3L26.8-6.3 26.8-14.05 19.9-14.05 19.9-19.45ZM58-13.7L69.35-35.25 75.4-35.25 75.4 0 68.55 0 68.55-20.9 60.45-5.8 55.45-5.8 47.35-20.7 47.35 0 40.5 0 40.5-35.25 46.65-35.25 58-13.7ZM79.25 0.5L78.8-5.75 82.59-6Q84.59-6.1 85.55-7.13 86.5-8.15 86.5-10.2L86.5-10.2 86.5-35.25 94.34-35.25 94.34-10.3Q94.34-0.35 83.9 0.25L83.9 0.25 79.25 0.5Z" opacity="1" transform="matrix(1,0,0,1,0,0)" fill="#fe0039" class="undefined-text-0" data-fill-palette-color="primary" id="text-0"></path></svg></g></svg></g></svg></g></svg></g><g transform="matrix(1,0,0,1,0,0.3897066956995019)"><svg viewBox="0 0 176.93694974314946 155.88267827980403" height="155.88267827980403" width="176.93694974314946"><g><svg xmlns="http://www.w3.org/2000/svg" xmlnsxlink="http://www.w3.org/1999/xlink" version="1.1" x="0" y="0" viewBox="6.300000190734863 11.5 87.39999389648438 77" style="enable-background:new 0 0 100 100;" xmlspace="preserve" height="155.88267827980403" width="176.93694974314946" class="icon-icon-0" data-fill-palette-color="accent" id="icon-0"><path d="M72.3 12.3L72.3 12.3 72.3 12.3l-0.4-0.8H28.2L6.3 50l21.8 38.5h43.7L93.7 50 72.3 12.3zM33.3 25.3L9.9 47.7l18.6-32.8L33.3 25.3zM70.7 14.8l6.4 35.7L36.9 25.8 70.7 14.8zM35.5 27.3l41 25.2-41 23.3V27.3zM77 54.5l-7.2 30.8-32.6-8.1L77 54.5zM33.5 75L9.9 50.5l23.6-22.7V75zM33.2 77.6l-4.6 7.7L11.5 55.1 33.2 77.6zM35 78.6l31.4 7.9H30.2L35 78.6zM79.3 53.3l11.6-2.5L72.1 84 79.3 53.3zM90.7 48.9l-11.4 2.5-5.9-33.1L90.7 48.9zM35 24.3l-5-10.8h38.2L35 24.3z" fill="#c1c1c1" data-fill-palette-color="accent"></path></svg></g></svg></g></svg></g><defs></defs></svg><rect width="395.52" height="93.86697344526046" fill="none" stroke="none" visibility="hidden"></rect></g></svg></g></svg>